<mxfile host="app.diagrams.net" agent="Mozilla/5.0 (X11; Linux x86_64) AppleWebKit/537.36 (KHTML, like Gecko) Chrome/128.0.0.0 Safari/537.36" version="24.7.16">
  <diagram name="Page-1" id="IQFzwWVIoBJDt1kDczub">
    <mxGraphModel dx="993" dy="549" grid="1" gridSize="10" guides="1" tooltips="1" connect="1" arrows="1" fold="1" page="1" pageScale="1" pageWidth="850" pageHeight="1100" math="0" shadow="0">
      <root>
        <mxCell id="0" />
        <mxCell id="1" parent="0" />
        <mxCell id="QfvnHcIYspNI6X6zFvNk-2" value="&lt;div style=&quot;font-size: 12px;&quot;&gt;Higher&lt;/div&gt;&lt;div style=&quot;font-size: 12px;&quot;&gt;Consciousness&lt;br style=&quot;font-size: 12px;&quot;&gt;&lt;/div&gt;" style="ellipse;whiteSpace=wrap;html=1;aspect=fixed;dashed=1;fontSize=12;" parent="1" vertex="1">
          <mxGeometry x="10" y="410" width="90" height="90" as="geometry" />
        </mxCell>
        <mxCell id="QfvnHcIYspNI6X6zFvNk-6" value="" style="endArrow=classic;html=1;rounded=0;exitX=1;exitY=0.5;exitDx=0;exitDy=0;entryX=0;entryY=0.5;entryDx=0;entryDy=0;dashed=1;fontSize=12;" parent="1" source="QfvnHcIYspNI6X6zFvNk-2" target="AyuZund40e7lfLbwNVDC-1" edge="1">
          <mxGeometry width="50" height="50" relative="1" as="geometry">
            <mxPoint x="81" y="146" as="sourcePoint" />
            <mxPoint x="-180" y="260" as="targetPoint" />
          </mxGeometry>
        </mxCell>
        <mxCell id="QfvnHcIYspNI6X6zFvNk-9" value="" style="endArrow=classic;html=1;rounded=0;exitX=1;exitY=0.5;exitDx=0;exitDy=0;entryX=0;entryY=0.5;entryDx=0;entryDy=0;dashed=1;fontSize=12;" parent="1" source="QfvnHcIYspNI6X6zFvNk-2" target="AyuZund40e7lfLbwNVDC-3" edge="1">
          <mxGeometry width="50" height="50" relative="1" as="geometry">
            <mxPoint x="-110" y="335" as="sourcePoint" />
            <mxPoint x="-40" y="146" as="targetPoint" />
          </mxGeometry>
        </mxCell>
        <mxCell id="QfvnHcIYspNI6X6zFvNk-11" value="" style="endArrow=classic;html=1;rounded=0;exitX=1;exitY=0.5;exitDx=0;exitDy=0;entryX=0;entryY=0.5;entryDx=0;entryDy=0;dashed=1;fontSize=12;" parent="1" source="QfvnHcIYspNI6X6zFvNk-2" target="AyuZund40e7lfLbwNVDC-12" edge="1">
          <mxGeometry width="50" height="50" relative="1" as="geometry">
            <mxPoint x="-110" y="335" as="sourcePoint" />
            <mxPoint x="-40" y="441" as="targetPoint" />
          </mxGeometry>
        </mxCell>
        <mxCell id="QfvnHcIYspNI6X6zFvNk-12" value="" style="endArrow=classic;html=1;rounded=0;exitX=1;exitY=0.5;exitDx=0;exitDy=0;entryX=0;entryY=0.5;entryDx=0;entryDy=0;dashed=1;fontSize=12;" parent="1" source="QfvnHcIYspNI6X6zFvNk-2" target="AyuZund40e7lfLbwNVDC-15" edge="1">
          <mxGeometry width="50" height="50" relative="1" as="geometry">
            <mxPoint x="-100" y="345" as="sourcePoint" />
            <mxPoint x="-30" y="451" as="targetPoint" />
          </mxGeometry>
        </mxCell>
        <mxCell id="QfvnHcIYspNI6X6zFvNk-10" value="" style="endArrow=classic;html=1;rounded=0;exitX=1;exitY=0.5;exitDx=0;exitDy=0;entryX=0;entryY=0.5;entryDx=0;entryDy=0;dashed=1;fontSize=12;" parent="1" source="QfvnHcIYspNI6X6zFvNk-2" target="AyuZund40e7lfLbwNVDC-35" edge="1">
          <mxGeometry width="50" height="50" relative="1" as="geometry">
            <mxPoint x="-130" y="384.03" as="sourcePoint" />
            <mxPoint x="-60" y="401.03" as="targetPoint" />
          </mxGeometry>
        </mxCell>
        <mxCell id="AyuZund40e7lfLbwNVDC-1" value="Unity-Consciousness" style="ellipse;whiteSpace=wrap;html=1;fontSize=12;" parent="1" vertex="1">
          <mxGeometry x="140" y="218.37762348555452" width="120.89759797724399" height="73.9049394221808" as="geometry" />
        </mxCell>
        <mxCell id="AyuZund40e7lfLbwNVDC-3" value="&lt;div style=&quot;font-size: 12px;&quot;&gt;Bliss&lt;/div&gt;" style="ellipse;whiteSpace=wrap;html=1;fontSize=12;" parent="1" vertex="1">
          <mxGeometry x="140" y="404.37643056849953" width="120.89759797724399" height="73.9049394221808" as="geometry" />
        </mxCell>
        <mxCell id="AyuZund40e7lfLbwNVDC-12" value="&lt;div style=&quot;font-size: 12px;&quot;&gt;Somatic Energy&lt;/div&gt;" style="ellipse;whiteSpace=wrap;html=1;fontSize=12;" parent="1" vertex="1">
          <mxGeometry x="140" y="640.649888164026" width="120.89759797724399" height="73.9049394221808" as="geometry" />
        </mxCell>
        <mxCell id="AyuZund40e7lfLbwNVDC-15" value="&lt;div style=&quot;font-size: 12px;&quot;&gt;Luminosity&lt;/div&gt;" style="ellipse;whiteSpace=wrap;html=1;fontSize=12;" parent="1" vertex="1">
          <mxGeometry x="140" y="739.9950605778191" width="120.89759797724399" height="73.9049394221808" as="geometry" />
        </mxCell>
        <mxCell id="AyuZund40e7lfLbwNVDC-32" value="" style="endArrow=classic;html=1;rounded=0;entryX=0;entryY=0.5;entryDx=0;entryDy=0;exitX=1;exitY=0.5;exitDx=0;exitDy=0;fontSize=12;" parent="1" source="AyuZund40e7lfLbwNVDC-3" target="AyuZund40e7lfLbwNVDC-28" edge="1">
          <mxGeometry width="50" height="50" relative="1" as="geometry">
            <mxPoint x="244.1213653603034" y="375.94594594594594" as="sourcePoint" />
            <mxPoint x="369.63337547408344" y="339.5992544268407" as="targetPoint" />
          </mxGeometry>
        </mxCell>
        <mxCell id="AyuZund40e7lfLbwNVDC-60" value=".86 [.82, .90]" style="edgeLabel;html=1;align=center;verticalAlign=middle;resizable=0;points=[];fontSize=12;" parent="AyuZund40e7lfLbwNVDC-32" vertex="1" connectable="0">
          <mxGeometry relative="1" as="geometry">
            <mxPoint as="offset" />
          </mxGeometry>
        </mxCell>
        <mxCell id="AyuZund40e7lfLbwNVDC-33" value="" style="endArrow=classic;html=1;rounded=0;entryX=0;entryY=0.5;entryDx=0;entryDy=0;exitX=1;exitY=0.5;exitDx=0;exitDy=0;fontSize=12;" parent="1" source="AyuZund40e7lfLbwNVDC-3" target="AyuZund40e7lfLbwNVDC-29" edge="1">
          <mxGeometry width="50" height="50" relative="1" as="geometry">
            <mxPoint x="253.35018963337546" y="388.06150978564773" as="sourcePoint" />
            <mxPoint x="378.86219974715544" y="351.7148182665424" as="targetPoint" />
          </mxGeometry>
        </mxCell>
        <mxCell id="AyuZund40e7lfLbwNVDC-61" value=".90 [.87, .94]" style="edgeLabel;html=1;align=center;verticalAlign=middle;resizable=0;points=[];fontSize=12;" parent="AyuZund40e7lfLbwNVDC-33" vertex="1" connectable="0">
          <mxGeometry relative="1" as="geometry">
            <mxPoint as="offset" />
          </mxGeometry>
        </mxCell>
        <mxCell id="AyuZund40e7lfLbwNVDC-34" value="" style="endArrow=classic;html=1;rounded=0;entryX=0;entryY=0.5;entryDx=0;entryDy=0;exitX=1;exitY=0.5;exitDx=0;exitDy=0;fontSize=12;" parent="1" source="AyuZund40e7lfLbwNVDC-3" target="AyuZund40e7lfLbwNVDC-30" edge="1">
          <mxGeometry width="50" height="50" relative="1" as="geometry">
            <mxPoint x="244.1213653603034" y="484.98602050326195" as="sourcePoint" />
            <mxPoint x="369.63337547408344" y="448.6393289841566" as="targetPoint" />
          </mxGeometry>
        </mxCell>
        <mxCell id="AyuZund40e7lfLbwNVDC-62" value=".84 [.78, .87]" style="edgeLabel;html=1;align=center;verticalAlign=middle;resizable=0;points=[];fontSize=12;" parent="AyuZund40e7lfLbwNVDC-34" vertex="1" connectable="0">
          <mxGeometry relative="1" as="geometry">
            <mxPoint as="offset" />
          </mxGeometry>
        </mxCell>
        <mxCell id="AyuZund40e7lfLbwNVDC-35" value="Insight" style="ellipse;whiteSpace=wrap;html=1;fontSize=12;" parent="1" vertex="1">
          <mxGeometry x="140" y="523.0458247903075" width="120.89759797724399" height="73.9049394221808" as="geometry" />
        </mxCell>
        <mxCell id="AyuZund40e7lfLbwNVDC-39" value="" style="endArrow=classic;html=1;rounded=0;entryX=0;entryY=0.5;entryDx=0;entryDy=0;exitX=1;exitY=0.5;exitDx=0;exitDy=0;fontSize=12;" parent="1" source="AyuZund40e7lfLbwNVDC-35" target="AyuZund40e7lfLbwNVDC-36" edge="1">
          <mxGeometry width="50" height="50" relative="1" as="geometry">
            <mxPoint x="244.1213653603034" y="484.98602050326195" as="sourcePoint" />
            <mxPoint x="370.5562579013906" y="448.6393289841566" as="targetPoint" />
          </mxGeometry>
        </mxCell>
        <mxCell id="AyuZund40e7lfLbwNVDC-63" value=".83 [.79, .88]" style="edgeLabel;html=1;align=center;verticalAlign=middle;resizable=0;points=[];fontSize=12;" parent="AyuZund40e7lfLbwNVDC-39" vertex="1" connectable="0">
          <mxGeometry relative="1" as="geometry">
            <mxPoint as="offset" />
          </mxGeometry>
        </mxCell>
        <mxCell id="AyuZund40e7lfLbwNVDC-40" value="" style="endArrow=classic;html=1;rounded=0;entryX=0;entryY=0.5;entryDx=0;entryDy=0;exitX=1;exitY=0.5;exitDx=0;exitDy=0;fontSize=12;" parent="1" source="AyuZund40e7lfLbwNVDC-35" target="AyuZund40e7lfLbwNVDC-37" edge="1">
          <mxGeometry width="50" height="50" relative="1" as="geometry">
            <mxPoint x="253.35018963337546" y="497.1015843429637" as="sourcePoint" />
            <mxPoint x="379.7850821744627" y="460.7548928238583" as="targetPoint" />
          </mxGeometry>
        </mxCell>
        <mxCell id="AyuZund40e7lfLbwNVDC-64" value=".83 [.78, .87]" style="edgeLabel;html=1;align=center;verticalAlign=middle;resizable=0;points=[];fontSize=12;" parent="AyuZund40e7lfLbwNVDC-40" vertex="1" connectable="0">
          <mxGeometry relative="1" as="geometry">
            <mxPoint as="offset" />
          </mxGeometry>
        </mxCell>
        <mxCell id="AyuZund40e7lfLbwNVDC-44" value="" style="endArrow=classic;html=1;rounded=0;entryX=0;entryY=0.5;entryDx=0;entryDy=0;exitX=1;exitY=0.5;exitDx=0;exitDy=0;fontSize=12;" parent="1" source="AyuZund40e7lfLbwNVDC-12" target="AyuZund40e7lfLbwNVDC-41" edge="1">
          <mxGeometry width="50" height="50" relative="1" as="geometry">
            <mxPoint x="244.1213653603034" y="600.2758620689655" as="sourcePoint" />
            <mxPoint x="370.5562579013906" y="617.237651444548" as="targetPoint" />
          </mxGeometry>
        </mxCell>
        <mxCell id="AyuZund40e7lfLbwNVDC-65" value=".94 [.90, .97]" style="edgeLabel;html=1;align=center;verticalAlign=middle;resizable=0;points=[];fontSize=12;" parent="AyuZund40e7lfLbwNVDC-44" vertex="1" connectable="0">
          <mxGeometry relative="1" as="geometry">
            <mxPoint as="offset" />
          </mxGeometry>
        </mxCell>
        <mxCell id="AyuZund40e7lfLbwNVDC-45" value="" style="endArrow=classic;html=1;rounded=0;entryX=0;entryY=0.5;entryDx=0;entryDy=0;exitX=1;exitY=0.5;exitDx=0;exitDy=0;fontSize=12;" parent="1" source="AyuZund40e7lfLbwNVDC-12" target="AyuZund40e7lfLbwNVDC-42" edge="1">
          <mxGeometry width="50" height="50" relative="1" as="geometry">
            <mxPoint x="253.35018963337546" y="612.3914259086673" as="sourcePoint" />
            <mxPoint x="379.7850821744627" y="629.3532152842498" as="targetPoint" />
          </mxGeometry>
        </mxCell>
        <mxCell id="AyuZund40e7lfLbwNVDC-66" value=".87 [.83, .91]" style="edgeLabel;html=1;align=center;verticalAlign=middle;resizable=0;points=[];fontSize=12;" parent="AyuZund40e7lfLbwNVDC-45" vertex="1" connectable="0">
          <mxGeometry relative="1" as="geometry">
            <mxPoint as="offset" />
          </mxGeometry>
        </mxCell>
        <mxCell id="AyuZund40e7lfLbwNVDC-46" value="" style="endArrow=classic;html=1;rounded=0;entryX=0;entryY=0.5;entryDx=0;entryDy=0;exitX=1;exitY=0.5;exitDx=0;exitDy=0;fontSize=12;" parent="1" source="AyuZund40e7lfLbwNVDC-12" target="AyuZund40e7lfLbwNVDC-43" edge="1">
          <mxGeometry width="50" height="50" relative="1" as="geometry">
            <mxPoint x="262.5790139064475" y="624.506989748369" as="sourcePoint" />
            <mxPoint x="389.01390644753474" y="641.4687791239515" as="targetPoint" />
          </mxGeometry>
        </mxCell>
        <mxCell id="AyuZund40e7lfLbwNVDC-67" value=".87 [.82, .90]" style="edgeLabel;html=1;align=center;verticalAlign=middle;resizable=0;points=[];fontSize=12;" parent="AyuZund40e7lfLbwNVDC-46" vertex="1" connectable="0">
          <mxGeometry relative="1" as="geometry">
            <mxPoint as="offset" />
          </mxGeometry>
        </mxCell>
        <mxCell id="AyuZund40e7lfLbwNVDC-49" value="" style="endArrow=classic;html=1;rounded=0;entryX=0;entryY=0.5;entryDx=0;entryDy=0;exitX=1;exitY=0.5;exitDx=0;exitDy=0;fontSize=12;" parent="1" source="AyuZund40e7lfLbwNVDC-15" target="AyuZund40e7lfLbwNVDC-47" edge="1">
          <mxGeometry width="50" height="50" relative="1" as="geometry">
            <mxPoint x="244.1213653603034" y="688.7194780987884" as="sourcePoint" />
            <mxPoint x="369.63337547408344" y="723.8546132339237" as="targetPoint" />
          </mxGeometry>
        </mxCell>
        <mxCell id="AyuZund40e7lfLbwNVDC-68" value=".92 [.88, .95]" style="edgeLabel;html=1;align=center;verticalAlign=middle;resizable=0;points=[];fontSize=12;" parent="AyuZund40e7lfLbwNVDC-49" vertex="1" connectable="0">
          <mxGeometry relative="1" as="geometry">
            <mxPoint as="offset" />
          </mxGeometry>
        </mxCell>
        <mxCell id="AyuZund40e7lfLbwNVDC-50" value="" style="endArrow=classic;html=1;rounded=0;entryX=0;entryY=0.5;entryDx=0;entryDy=0;exitX=1;exitY=0.5;exitDx=0;exitDy=0;fontSize=12;" parent="1" source="AyuZund40e7lfLbwNVDC-15" target="AyuZund40e7lfLbwNVDC-48" edge="1">
          <mxGeometry width="50" height="50" relative="1" as="geometry">
            <mxPoint x="253.35018963337546" y="700.8350419384902" as="sourcePoint" />
            <mxPoint x="378.86219974715544" y="735.9701770736255" as="targetPoint" />
          </mxGeometry>
        </mxCell>
        <mxCell id="AyuZund40e7lfLbwNVDC-69" value=".92 [.88, .95]" style="edgeLabel;html=1;align=center;verticalAlign=middle;resizable=0;points=[];fontSize=12;" parent="AyuZund40e7lfLbwNVDC-50" vertex="1" connectable="0">
          <mxGeometry relative="1" as="geometry">
            <mxPoint as="offset" />
          </mxGeometry>
        </mxCell>
        <mxCell id="AyuZund40e7lfLbwNVDC-7" value="" style="endArrow=classic;html=1;rounded=0;exitX=1;exitY=0.5;exitDx=0;exitDy=0;entryX=0;entryY=0.5;entryDx=0;entryDy=0;fontSize=12;" parent="1" source="AyuZund40e7lfLbwNVDC-1" target="AyuZund40e7lfLbwNVDC-4" edge="1">
          <mxGeometry width="50" height="50" relative="1" as="geometry">
            <mxPoint x="352.09860935524654" y="423.1966449207828" as="sourcePoint" />
            <mxPoint x="398.2427307206068" y="362.618825722274" as="targetPoint" />
          </mxGeometry>
        </mxCell>
        <mxCell id="AyuZund40e7lfLbwNVDC-52" value=".87 [.83, .89]" style="edgeLabel;html=1;align=center;verticalAlign=middle;resizable=0;points=[];spacingBottom=30;fontSize=12;" parent="AyuZund40e7lfLbwNVDC-7" vertex="1" connectable="0">
          <mxGeometry relative="1" as="geometry">
            <mxPoint as="offset" />
          </mxGeometry>
        </mxCell>
        <mxCell id="AyuZund40e7lfLbwNVDC-27" value="" style="endArrow=classic;html=1;rounded=0;entryX=0;entryY=0.5;entryDx=0;entryDy=0;exitX=1;exitY=0.5;exitDx=0;exitDy=0;fontSize=12;" parent="1" source="AyuZund40e7lfLbwNVDC-1" target="AyuZund40e7lfLbwNVDC-22" edge="1">
          <mxGeometry width="50" height="50" relative="1" as="geometry">
            <mxPoint x="244.1213653603034" y="362.618825722274" as="sourcePoint" />
            <mxPoint x="388.09102402022756" y="327.4836905871389" as="targetPoint" />
          </mxGeometry>
        </mxCell>
        <mxCell id="AyuZund40e7lfLbwNVDC-59" value=".87 [.83, .90]" style="edgeLabel;html=1;align=center;verticalAlign=middle;resizable=0;points=[];labelBorderColor=none;spacingTop=30;fontSize=12;" parent="AyuZund40e7lfLbwNVDC-27" vertex="1" connectable="0">
          <mxGeometry relative="1" as="geometry">
            <mxPoint as="offset" />
          </mxGeometry>
        </mxCell>
        <mxCell id="AyuZund40e7lfLbwNVDC-26" value="" style="endArrow=classic;html=1;rounded=0;entryX=0;entryY=0.5;entryDx=0;entryDy=0;exitX=1;exitY=0.5;exitDx=0;exitDy=0;fontSize=12;" parent="1" source="AyuZund40e7lfLbwNVDC-1" target="AyuZund40e7lfLbwNVDC-21" edge="1">
          <mxGeometry width="50" height="50" relative="1" as="geometry">
            <mxPoint x="244.1213653603034" y="362.01304753028893" as="sourcePoint" />
            <mxPoint x="378.86219974715544" y="315.36812674743703" as="targetPoint" />
          </mxGeometry>
        </mxCell>
        <mxCell id="AyuZund40e7lfLbwNVDC-58" value=".86 [.82, .89]" style="edgeLabel;html=1;align=center;verticalAlign=middle;resizable=0;points=[];spacingTop=16;fontSize=12;" parent="AyuZund40e7lfLbwNVDC-26" vertex="1" connectable="0">
          <mxGeometry relative="1" as="geometry">
            <mxPoint as="offset" />
          </mxGeometry>
        </mxCell>
        <mxCell id="AyuZund40e7lfLbwNVDC-19" value="" style="endArrow=classic;html=1;rounded=0;entryX=0;entryY=0.5;entryDx=0;entryDy=0;exitX=1;exitY=0.5;exitDx=0;exitDy=0;fontSize=12;" parent="1" source="AyuZund40e7lfLbwNVDC-1" target="AyuZund40e7lfLbwNVDC-17" edge="1">
          <mxGeometry width="50" height="50" relative="1" as="geometry">
            <mxPoint x="232.1238938053097" y="253.57875116495805" as="sourcePoint" />
            <mxPoint x="378.86219974715544" y="242.67474370922645" as="targetPoint" />
          </mxGeometry>
        </mxCell>
        <mxCell id="AyuZund40e7lfLbwNVDC-56" value=".89 [.86, .91]" style="edgeLabel;html=1;align=center;verticalAlign=middle;resizable=0;points=[];spacingTop=0;fontSize=12;" parent="AyuZund40e7lfLbwNVDC-19" vertex="1" connectable="0">
          <mxGeometry relative="1" as="geometry">
            <mxPoint as="offset" />
          </mxGeometry>
        </mxCell>
        <mxCell id="ogwkNkthknCJ-jp4AeTu-4" value="" style="endArrow=classic;html=1;rounded=0;entryX=0;entryY=0.5;entryDx=0;entryDy=0;exitX=1;exitY=0.5;exitDx=0;exitDy=0;fontSize=12;" parent="1" source="AyuZund40e7lfLbwNVDC-35" target="ogwkNkthknCJ-jp4AeTu-2" edge="1">
          <mxGeometry width="50" height="50" relative="1" as="geometry">
            <mxPoint x="271" y="571" as="sourcePoint" />
            <mxPoint x="371" y="591" as="targetPoint" />
          </mxGeometry>
        </mxCell>
        <mxCell id="ogwkNkthknCJ-jp4AeTu-5" value=".87 [.82, .90]" style="edgeLabel;html=1;align=center;verticalAlign=middle;resizable=0;points=[];fontSize=12;" parent="ogwkNkthknCJ-jp4AeTu-4" vertex="1" connectable="0">
          <mxGeometry relative="1" as="geometry">
            <mxPoint as="offset" />
          </mxGeometry>
        </mxCell>
        <mxCell id="AyuZund40e7lfLbwNVDC-4" value="m6. New knowledge / awareness of the unbounded intelligence behind universe" style="rounded=0;whiteSpace=wrap;html=1;align=left;spacingLeft=3;fontSize=12;" parent="1" vertex="1">
          <mxGeometry x="360.3600538636803" y="130" width="438.7571349994996" height="26.654422487462796" as="geometry" />
        </mxCell>
        <mxCell id="AyuZund40e7lfLbwNVDC-5" value="&lt;div style=&quot;font-size: 12px;&quot;&gt;m22. Expansion of consciousness&lt;/div&gt;" style="rounded=0;whiteSpace=wrap;html=1;align=left;spacingLeft=3;fontSize=12;" parent="1" vertex="1">
          <mxGeometry x="360.3600538636803" y="167.0002526984182" width="438.7571349994996" height="26.654422487462796" as="geometry" />
        </mxCell>
        <mxCell id="AyuZund40e7lfLbwNVDC-6" value="m25. An experience of union with the Divine/God or universal consciousness" style="rounded=0;whiteSpace=wrap;html=1;align=left;spacingLeft=3;fontSize=12;" parent="1" vertex="1">
          <mxGeometry x="360.3600538636803" y="205.00051222652337" width="438.7571349994996" height="26.654422487462796" as="geometry" />
        </mxCell>
        <mxCell id="AyuZund40e7lfLbwNVDC-17" value="m15. Expanded comprehension of reality" style="rounded=0;whiteSpace=wrap;html=1;align=left;spacingLeft=3;fontSize=12;" parent="1" vertex="1">
          <mxGeometry x="359.48" y="242.00076492494156" width="438.7571349994996" height="26.654422487462796" as="geometry" />
        </mxCell>
        <mxCell id="AyuZund40e7lfLbwNVDC-20" value="m8. Loss of fear of death / certainty of immortality" style="rounded=0;whiteSpace=wrap;html=1;align=left;spacingLeft=3;fontSize=12;" parent="1" vertex="1">
          <mxGeometry x="359.48" y="279.00101762335976" width="438.7571349994996" height="26.654422487462796" as="geometry" />
        </mxCell>
        <mxCell id="AyuZund40e7lfLbwNVDC-21" value="m13. All sense of separateness disappears" style="rounded=0;whiteSpace=wrap;html=1;align=left;spacingLeft=3;fontSize=12;" parent="1" vertex="1">
          <mxGeometry x="359.48" y="316.00127032177795" width="438.7571349994996" height="26.654422487462796" as="geometry" />
        </mxCell>
        <mxCell id="AyuZund40e7lfLbwNVDC-22" value="m10. Increased feelings of unity with creation" style="rounded=0;whiteSpace=wrap;html=1;align=left;spacingLeft=3;fontSize=12;" parent="1" vertex="1">
          <mxGeometry x="360.36281113681997" y="354.0015298498831" width="438.7571349994996" height="26.654422487462796" as="geometry" />
        </mxCell>
        <mxCell id="AyuZund40e7lfLbwNVDC-28" value="m5. Overwhelming sense of love" style="rounded=0;whiteSpace=wrap;html=1;align=left;spacingLeft=3;fontSize=12;" parent="1" vertex="1">
          <mxGeometry x="361.2428650005002" y="391.0017825483013" width="438.7571349994996" height="26.654422487462796" as="geometry" />
        </mxCell>
        <mxCell id="AyuZund40e7lfLbwNVDC-29" value="m7. Overwhelming sense of wonder and awe" style="rounded=0;whiteSpace=wrap;html=1;align=left;spacingLeft=3;fontSize=12;" parent="1" vertex="1">
          <mxGeometry x="361.2428650005002" y="428.0020352467195" width="438.7571349994996" height="26.654422487462796" as="geometry" />
        </mxCell>
        <mxCell id="AyuZund40e7lfLbwNVDC-30" value="m4. Intense feeling of peace" style="rounded=0;whiteSpace=wrap;html=1;align=left;spacingLeft=3;fontSize=12;" parent="1" vertex="1">
          <mxGeometry x="361.2428650005002" y="466.0022947748247" width="438.7571349994996" height="26.654422487462796" as="geometry" />
        </mxCell>
        <mxCell id="AyuZund40e7lfLbwNVDC-36" value="s3. An unshakable conviction about the reality of the experience" style="rounded=0;whiteSpace=wrap;html=1;align=left;spacingLeft=3;fontSize=12;" parent="1" vertex="1">
          <mxGeometry x="361.2428650005002" y="503.0025474732429" width="438.7571349994996" height="26.654422487462796" as="geometry" />
        </mxCell>
        <mxCell id="AyuZund40e7lfLbwNVDC-37" value="&lt;div&gt;s2. New understanding of spiritual truths/Insight into the inner meaning of&lt;/div&gt;&lt;div&gt;&amp;nbsp;&amp;nbsp;&amp;nbsp;&amp;nbsp;&amp;nbsp; spiritual teachings&lt;/div&gt;" style="rounded=0;whiteSpace=wrap;html=1;align=left;spacingLeft=3;fontSize=12;" parent="1" vertex="1">
          <mxGeometry x="361.2453199410588" y="540.0028001716611" width="438.7546800589412" height="40.000273187479124" as="geometry" />
        </mxCell>
        <mxCell id="AyuZund40e7lfLbwNVDC-41" value="p5. Feelings of energy flowing or vibrating within" style="rounded=0;whiteSpace=wrap;html=1;align=left;spacingLeft=3;fontSize=12;" parent="1" vertex="1">
          <mxGeometry x="360.3600538636803" y="627.2833962667405" width="438.7571349994996" height="26.654422487462796" as="geometry" />
        </mxCell>
        <mxCell id="AyuZund40e7lfLbwNVDC-42" value="p3. Sensations of energy rushing up the spine" style="rounded=0;whiteSpace=wrap;html=1;align=left;spacingLeft=3;fontSize=12;" parent="1" vertex="1">
          <mxGeometry x="360.3600538636803" y="664.2836489651587" width="438.7571349994996" height="26.654422487462796" as="geometry" />
        </mxCell>
        <mxCell id="AyuZund40e7lfLbwNVDC-43" value="&lt;div&gt;p9. Sensations of energy along the seven major chakras / base of spine to crown&amp;nbsp;&lt;/div&gt;&lt;div&gt;&amp;nbsp;&amp;nbsp;&amp;nbsp;&amp;nbsp;&amp;nbsp; of head&lt;/div&gt;" style="rounded=0;whiteSpace=wrap;html=1;align=left;spacingLeft=3;fontSize=12;" parent="1" vertex="1">
          <mxGeometry x="361.2453199410588" y="701.2839016635769" width="438.7546800589412" height="38.72026444547979" as="geometry" />
        </mxCell>
        <mxCell id="AyuZund40e7lfLbwNVDC-47" value="p11. Sensations of white light or luminosity" style="rounded=0;whiteSpace=wrap;html=1;align=left;spacingLeft=3;fontSize=12;" parent="1" vertex="1">
          <mxGeometry x="361.2428650005002" y="750.0042344059265" width="438.7571349994996" height="26.654422487462796" as="geometry" />
        </mxCell>
        <mxCell id="AyuZund40e7lfLbwNVDC-48" value="p1. Visions of light" style="rounded=0;whiteSpace=wrap;html=1;align=left;spacingLeft=3;fontSize=12;" parent="1" vertex="1">
          <mxGeometry x="361.2428650005002" y="787.0055775125371" width="438.7571349994996" height="26.654422487462796" as="geometry" />
        </mxCell>
        <mxCell id="ogwkNkthknCJ-jp4AeTu-2" value="s26. A profound insight into the inner workings of the Cosmos" style="rounded=0;whiteSpace=wrap;html=1;align=left;spacingLeft=3;fontSize=12;" parent="1" vertex="1">
          <mxGeometry x="360.3600538636803" y="590.2831435683223" width="438.7571349994996" height="26.654422487462796" as="geometry" />
        </mxCell>
        <mxCell id="AyuZund40e7lfLbwNVDC-25" value="" style="endArrow=classic;html=1;rounded=0;entryX=0;entryY=0.5;entryDx=0;entryDy=0;exitX=1;exitY=0.5;exitDx=0;exitDy=0;fontSize=12;" parent="1" source="AyuZund40e7lfLbwNVDC-1" target="AyuZund40e7lfLbwNVDC-20" edge="1">
          <mxGeometry width="50" height="50" relative="1" as="geometry">
            <mxPoint x="244.1213653603034" y="362.01304753028893" as="sourcePoint" />
            <mxPoint x="369.63337547408344" y="303.25256290773535" as="targetPoint" />
          </mxGeometry>
        </mxCell>
        <mxCell id="AyuZund40e7lfLbwNVDC-57" value=".67 [.60, .72]" style="edgeLabel;html=1;align=center;verticalAlign=middle;resizable=0;points=[];spacingTop=3;fontSize=12;" parent="AyuZund40e7lfLbwNVDC-25" vertex="1" connectable="0">
          <mxGeometry relative="1" as="geometry">
            <mxPoint as="offset" />
          </mxGeometry>
        </mxCell>
        <mxCell id="AyuZund40e7lfLbwNVDC-8" value="" style="endArrow=classic;html=1;rounded=0;exitX=1;exitY=0.5;exitDx=0;exitDy=0;entryX=0;entryY=0.5;entryDx=0;entryDy=0;fontSize=12;" parent="1" source="AyuZund40e7lfLbwNVDC-1" target="AyuZund40e7lfLbwNVDC-5" edge="1">
          <mxGeometry width="50" height="50" relative="1" as="geometry">
            <mxPoint x="352.09860935524654" y="423.1966449207828" as="sourcePoint" />
            <mxPoint x="398.2427307206068" y="362.618825722274" as="targetPoint" />
          </mxGeometry>
        </mxCell>
        <mxCell id="AyuZund40e7lfLbwNVDC-53" value=".92 [.90, .94]" style="edgeLabel;html=1;align=center;verticalAlign=middle;resizable=0;points=[];spacingBottom=16;fontSize=12;" parent="AyuZund40e7lfLbwNVDC-8" vertex="1" connectable="0">
          <mxGeometry relative="1" as="geometry">
            <mxPoint as="offset" />
          </mxGeometry>
        </mxCell>
        <mxCell id="AyuZund40e7lfLbwNVDC-9" value="" style="endArrow=classic;html=1;rounded=0;exitX=1;exitY=0.5;exitDx=0;exitDy=0;entryX=0;entryY=0.5;entryDx=0;entryDy=0;fontSize=12;" parent="1" source="AyuZund40e7lfLbwNVDC-1" target="AyuZund40e7lfLbwNVDC-6" edge="1">
          <mxGeometry width="50" height="50" relative="1" as="geometry">
            <mxPoint x="259.81036662452595" y="386.8499534016775" as="sourcePoint" />
            <mxPoint x="305.9544879898862" y="326.27213420316866" as="targetPoint" />
          </mxGeometry>
        </mxCell>
        <mxCell id="AyuZund40e7lfLbwNVDC-54" value=".87 [.84, .90]" style="edgeLabel;html=1;align=center;verticalAlign=middle;resizable=0;points=[];spacingBottom=3;fontSize=12;" parent="AyuZund40e7lfLbwNVDC-9" vertex="1" connectable="0">
          <mxGeometry relative="1" as="geometry">
            <mxPoint as="offset" />
          </mxGeometry>
        </mxCell>
      </root>
    </mxGraphModel>
  </diagram>
</mxfile>
